ffmpeg started on 2016-12-01 at 10:17:24
Report written to "Output/x264/results/ffmpeg/old_town_cross_2160p50medium14000k.log"
Command line:
Tools/ffmpeg/ffmpeg -benchmark -y -i Input/y4m/old_town_cross_2160p50.y4m -c:v libx264 -preset medium -b:v 14000k -an Output/x264/encoded/old_town_cross_2160p50medium14000k.mkv
ffmpeg version N-82227-gdb23fde Copyright (c) 2000-2016 the FFmpeg developers
  built with gcc 5.4.0 (Ubuntu 5.4.0-6ubuntu1~16.04.2) 20160609
  configuration: --prefix=/home/jaroslav/ffmpeg_build --pkg-config-flags=--static --extra-cflags=-I/home/jaroslav/ffmpeg_build/include --extra-ldflags=-L/home/jaroslav/ffmpeg_build/lib --bindir=/home/jaroslav/bin --enable-gpl --enable-libass --enable-libfdk-aac --enable-libfreetype --enable-libmp3lame --enable-libopus --enable-libtheora --enable-libvorbis --enable-libvpx --enable-libx264 --enable-libx265 --enable-nvenc --enable-libmfx --enable-libxvid --enable-libgsm --enable-libopencore-amrnb --enable-version3 --enable-nonfree
  libavutil      55. 35.100 / 55. 35.100
  libavcodec     57. 66.101 / 57. 66.101
  libavformat    57. 57.100 / 57. 57.100
  libavdevice    57.  2.100 / 57.  2.100
  libavfilter     6. 66.100 /  6. 66.100
  libswscale      4.  3.100 /  4.  3.100
  libswresample   2.  4.100 /  2.  4.100
  libpostproc    54.  2.100 / 54.  2.100
Input #0, yuv4mpegpipe, from 'Input/y4m/old_town_cross_2160p50.y4m':
  Duration: 00:00:10.00, start: 0.000000, bitrate: 4976642 kb/s
    Stream #0:0: Video: rawvideo (I420 / 0x30323449), yuv420p(progressive), 3840x2160, SAR 1:1 DAR 16:9, 50 fps, 50 tbr, 50 tbn, 50 tbc
[libx264 @ 0x3b96120] using SAR=1/1
[libx264 @ 0x3b96120] using cpu capabilities: MMX2 SSE2Fast SSSE3 SSE4.2 AVX FMA3 AVX2 LZCNT BMI2
[libx264 @ 0x3b96120] profile High, level 5.2
[libx264 @ 0x3b96120] 264 - core 148 - H.264/MPEG-4 AVC codec - Copyleft 2003-2016 - http://www.videolan.org/x264.html - options: cabac=1 ref=3 deblock=1:0:0 analyse=0x3:0x113 me=hex subme=7 psy=1 psy_rd=1.00:0.00 mixed_ref=1 me_range=16 chroma_me=1 trellis=1 8x8dct=1 cqm=0 deadzone=21,11 fast_pskip=1 chroma_qp_offset=-2 threads=6 lookahead_threads=1 sliced_threads=0 nr=0 decimate=1 interlaced=0 bluray_compat=0 constrained_intra=0 bframes=3 b_pyramid=2 b_adapt=1 b_bias=0 direct=1 weightb=1 open_gop=0 weightp=2 keyint=250 keyint_min=25 scenecut=40 intra_refresh=0 rc_lookahead=40 rc=abr mbtree=1 bitrate=14000 ratetol=1.0 qcomp=0.60 qpmin=0 qpmax=69 qpstep=4 ip_ratio=1.40 aq=1:1.00
Output #0, matroska, to 'Output/x264/encoded/old_town_cross_2160p50medium14000k.mkv':
  Metadata:
    encoder         : Lavf57.57.100
    Stream #0:0: Video: h264 (libx264) (H264 / 0x34363248), yuv420p, 3840x2160 [SAR 1:1 DAR 16:9], q=-1--1, 14000 kb/s, 50 fps, 1k tbn, 50 tbc
    Metadata:
      encoder         : Lavc57.66.101 libx264
    Side data:
      cpb: bitrate max/min/avg: 0/0/14000000 buffer size: 0 vbv_delay: -1
Stream mapping:
  Stream #0:0 -> #0:0 (rawvideo (native) -> h264 (libx264))
Press [q] to stop, [?] for help
frame=   47 fps= 19 q=0.0 size=       0kB time=00:00:00.00 bitrate=N/A speed=   0x    frame=   52 fps= 17 q=31.0 size=       1kB time=-00:00:00.01 bitrate=N/A speed=N/A    frame=   55 fps= 15 q=40.0 size=       1kB time=00:00:00.04 bitrate= 143.2kbits/s speed=0.0109x    frame=   59 fps= 14 q=48.0 size=       1kB time=00:00:00.12 bitrate=  48.5kbits/s speed=0.0284x    frame=   67 fps= 14 q=45.0 size=       1kB time=00:00:00.28 bitrate=  20.9kbits/s speed=0.0583x    frame=   76 fps= 14 q=43.0 size=       1kB time=00:00:00.46 bitrate=  12.7kbits/s speed=0.0865x    frame=   86 fps= 14 q=41.0 size=       1kB time=00:00:00.66 bitrate=   8.9kbits/s speed=0.111x    frame=   94 fps= 14 q=39.0 size=       1kB time=00:00:00.82 bitrate=   7.2kbits/s speed=0.126x    frame=   98 fps= 14 q=39.0 size=       1kB time=00:00:00.90 bitrate=   6.5kbits/s speed=0.128x    frame=  106 fps= 14 q=37.0 size=       1kB time=00:00:01.06 bitrate=   5.5kbits/s speed=0.139x    frame=  114 fps= 14 q=37.0 size=       1kB time=00:00:01.22 bitrate=   4.8kbits/s speed=0.148x    frame=  119 fps= 14 q=36.0 size=       1kB time=00:00:01.32 bitrate=   4.4kbits/s speed=0.151x    frame=  125 fps= 13 q=36.0 size=       1kB time=00:00:01.44 bitrate=   4.1kbits/s speed=0.155x    frame=  131 fps= 13 q=35.0 size=       1kB time=00:00:01.56 bitrate=   3.8kbits/s speed=0.158x    frame=  137 fps= 13 q=35.0 size=       1kB time=00:00:01.68 bitrate=   3.5kbits/s speed=0.161x    frame=  143 fps= 13 q=34.0 size=       1kB time=00:00:01.80 bitrate=   3.3kbits/s speed=0.164x    frame=  150 fps= 13 q=34.0 size=       1kB time=00:00:01.94 bitrate=   3.0kbits/s speed=0.168x    frame=  154 fps= 13 q=34.0 size=       1kB time=00:00:02.02 bitrate=   2.9kbits/s speed=0.167x    frame=  161 fps= 13 q=34.0 size=       1kB time=00:00:02.16 bitrate=   2.7kbits/s speed=0.17x    frame=  167 fps= 13 q=34.0 size=       1kB time=00:00:02.28 bitrate=   2.6kbits/s speed=0.172x    frame=  171 fps= 12 q=33.0 size=       1kB time=00:00:02.36 bitrate=   2.5kbits/s speed=0.172x    frame=  177 fps= 12 q=33.0 size=       1kB time=00:00:02.48 bitrate=   2.4kbits/s speed=0.173x    frame=  181 fps= 12 q=33.0 size=       1kB time=00:00:02.56 bitrate=   2.3kbits/s speed=0.173x    frame=  187 fps= 12 q=33.0 size=       1kB time=00:00:02.68 bitrate=   2.2kbits/s speed=0.174x    frame=  194 fps= 12 q=33.0 size=       1kB time=00:00:02.82 bitrate=   2.1kbits/s speed=0.176x    frame=  197 fps= 12 q=33.0 size=       1kB time=00:00:02.88 bitrate=   2.0kbits/s speed=0.174x    frame=  204 fps= 12 q=33.0 size=       1kB time=00:00:03.02 bitrate=   1.9kbits/s speed=0.177x    frame=  210 fps= 12 q=33.0 size=       1kB time=00:00:03.14 bitrate=   1.9kbits/s speed=0.177x    frame=  216 fps= 12 q=33.0 size=    5135kB time=00:00:03.26 bitrate=12900.1kbits/s speed=0.178x    frame=  221 fps= 12 q=33.0 size=    5135kB time=00:00:03.36 bitrate=12516.2kbits/s speed=0.178x    frame=  225 fps= 12 q=33.0 size=    5135kB time=00:00:03.44 bitrate=12225.2kbits/s speed=0.177x    frame=  233 fps= 12 q=33.0 size=    5135kB time=00:00:03.60 bitrate=11682.1kbits/s speed=0.178x    frame=  240 fps= 11 q=33.0 size=    5135kB time=00:00:03.74 bitrate=11244.9kbits/s speed=0.179x    frame=  246 fps= 11 q=33.0 size=    5135kB time=00:00:03.86 bitrate=10895.4kbits/s speed=0.18x    frame=  253 fps= 11 q=33.0 size=    5135kB time=00:00:04.00 bitrate=10514.1kbits/s speed=0.181x    frame=  257 fps= 11 q=33.0 size=    5135kB time=00:00:04.08 bitrate=10308.0kbits/s speed=0.18x    frame=  262 fps= 11 q=33.0 size=    5135kB time=00:00:04.18 bitrate=10061.5kbits/s speed=0.176x    frame=  263 fps= 11 q=33.0 size=    5135kB time=00:00:04.20 bitrate=10013.6kbits/s speed=0.172x    frame=  265 fps= 11 q=33.0 size=    5135kB time=00:00:04.24 bitrate=9919.1kbits/s speed=0.169x    frame=  270 fps= 10 q=33.0 size=    5135kB time=00:00:04.34 bitrate=9690.6kbits/s speed=0.168x    frame=  274 fps= 10 q=33.0 size=    5135kB time=00:00:04.42 bitrate=9515.3kbits/s speed=0.168x    frame=  278 fps= 10 q=33.0 size=    5135kB time=00:00:04.50 bitrate=9346.2kbits/s speed=0.168x    frame=  282 fps= 10 q=33.0 size=    5135kB time=00:00:04.58 bitrate=9182.9kbits/s speed=0.168x    frame=  286 fps= 10 q=33.0 size=    5135kB time=00:00:04.66 bitrate=9025.3kbits/s speed=0.168x    frame=  290 fps= 10 q=34.0 size=    5135kB time=00:00:04.74 bitrate=8873.0kbits/s speed=0.168x    frame=  294 fps= 10 q=34.0 size=    5135kB time=00:00:04.82 bitrate=8725.8kbits/s speed=0.167x    frame=  301 fps= 10 q=34.0 size=    8412kB time=00:00:04.96 bitrate=13890.0kbits/s speed=0.168x    frame=  306 fps= 10 q=34.0 size=    8412kB time=00:00:05.06 bitrate=13615.5kbits/s speed=0.168x    frame=  312 fps= 10 q=34.0 size=    8412kB time=00:00:05.18 bitrate=13300.2kbits/s speed=0.169x    frame=  318 fps= 10 q=34.0 size=    8412kB time=00:00:05.30 bitrate=12999.1kbits/s speed=0.17x    frame=  324 fps= 10 q=34.0 size=    8412kB time=00:00:05.42 bitrate=12711.4kbits/s speed=0.171x    frame=  328 fps= 10 q=34.0 size=    8412kB time=00:00:05.50 bitrate=12526.5kbits/s speed=0.17x    frame=  334 fps= 10 q=34.0 size=    8412kB time=00:00:05.62 bitrate=12259.1kbits/s speed=0.17x    frame=  341 fps= 10 q=34.0 size=    8412kB time=00:00:05.76 bitrate=11961.2kbits/s speed=0.172x    frame=  346 fps= 10 q=34.0 size=    8412kB time=00:00:05.86 bitrate=11757.1kbits/s speed=0.172x    frame=  351 fps= 10 q=34.0 size=    8412kB time=00:00:05.96 bitrate=11559.8kbits/s speed=0.172x    frame=  357 fps= 10 q=34.0 size=    8412kB time=00:00:06.08 bitrate=11331.7kbits/s speed=0.173x    frame=  364 fps= 10 q=33.0 size=    8412kB time=00:00:06.22 bitrate=11076.7kbits/s speed=0.173x    frame=  371 fps= 10 q=33.0 size=    8412kB time=00:00:06.36 bitrate=10832.9kbits/s speed=0.174x    frame=  374 fps= 10 q=33.0 size=    8412kB time=00:00:06.42 bitrate=10731.7kbits/s speed=0.174x    frame=  381 fps= 10 q=33.0 size=    8412kB time=00:00:06.56 bitrate=10502.7kbits/s speed=0.174x    frame=  388 fps= 10 q=33.0 size=    8412kB time=00:00:06.70 bitrate=10283.3kbits/s speed=0.176x    frame=  391 fps= 10 q=33.0 size=    8412kB time=00:00:06.76 bitrate=10192.0kbits/s speed=0.175x    frame=  398 fps= 10 q=33.0 size=    8412kB time=00:00:06.90 bitrate=9985.3kbits/s speed=0.175x    frame=  406 fps= 10 q=33.0 size=    8412kB time=00:00:07.06 bitrate=9759.0kbits/s speed=0.176x    frame=  414 fps= 10 q=33.0 size=    8412kB time=00:00:07.22 bitrate=9542.8kbits/s speed=0.176x    frame=  421 fps= 10 q=33.0 size=    8412kB time=00:00:07.36 bitrate=9361.3kbits/s speed=0.177x    frame=  426 fps= 10 q=33.0 size=    8412kB time=00:00:07.46 bitrate=9235.8kbits/s speed=0.176x    frame=  432 fps= 10 q=33.0 size=    8412kB time=00:00:07.58 bitrate=9089.6kbits/s speed=0.177x    frame=  438 fps= 10 q=33.0 size=    8412kB time=00:00:07.70 bitrate=8948.0kbits/s speed=0.177x    frame=  442 fps= 10 q=33.0 size=    8412kB time=00:00:07.78 bitrate=8856.0kbits/s speed=0.177x    frame=  449 fps= 10 q=33.0 size=    8412kB time=00:00:07.92 bitrate=8699.4kbits/s speed=0.178x    frame=  454 fps= 10 q=33.0 size=    8412kB time=00:00:08.02 bitrate=8591.0kbits/s speed=0.178x    frame=  458 fps= 10 q=33.0 size=   13591kB time=00:00:08.10 bitrate=13743.8kbits/s speed=0.178x    frame=  464 fps= 10 q=33.0 size=   13591kB time=00:00:08.22 bitrate=13543.2kbits/s speed=0.178x    frame=  468 fps= 10 q=33.0 size=   13591kB time=00:00:08.30 bitrate=13412.7kbits/s speed=0.178x    frame=  474 fps= 10 q=33.0 size=   13591kB time=00:00:08.42 bitrate=13221.6kbits/s speed=0.178x    frame=  479 fps= 10 q=33.0 size=   13591kB time=00:00:08.52 bitrate=13066.4kbits/s speed=0.178x    frame=  484 fps= 10 q=33.0 size=   13591kB time=00:00:08.62 bitrate=12914.8kbits/s speed=0.178x    frame=  490 fps= 10 q=33.0 size=   13591kB time=00:00:08.74 bitrate=12737.5kbits/s speed=0.178x    frame=  497 fps= 10 q=33.0 size=   13591kB time=00:00:08.88 bitrate=12536.8kbits/s speed=0.179x    frame=  500 fps=8.9 q=-1.0 Lsize=   17289kB time=00:00:09.94 bitrate=14247.3kbits/s speed=0.177x    
video:17284kB audio:0kB subtitle:0kB other streams:0kB global headers:0kB muxing overhead: 0.027171%
bench: utime=202.616s
bench: maxrss=1938184kB
[libx264 @ 0x3b96120] frame I:3     Avg QP:28.35  size:618258
[libx264 @ 0x3b96120] frame P:183   Avg QP:31.95  size: 51948
[libx264 @ 0x3b96120] frame B:314   Avg QP:33.91  size: 20183
[libx264 @ 0x3b96120] consecutive B-frames: 16.0%  0.8%  0.0% 83.2%
[libx264 @ 0x3b96120] mb I  I16..4:  3.1% 83.7% 13.2%
[libx264 @ 0x3b96120] mb P  I16..4:  0.1%  1.0%  0.0%  P16..4: 41.0%  3.0%  3.6%  0.0%  0.0%    skip:51.2%
[libx264 @ 0x3b96120] mb B  I16..4:  0.0%  0.2%  0.0%  B16..8: 45.2%  0.2%  0.0%  direct: 0.1%  skip:54.3%  L0:49.3% L1:50.7% BI: 0.1%
[libx264 @ 0x3b96120] final ratefactor: 25.54
[libx264 @ 0x3b96120] 8x8 transform intra:86.5% inter:89.7%
[libx264 @ 0x3b96120] coded y,uvDC,uvAC intra: 76.7% 74.8% 57.2% inter: 7.9% 7.3% 0.1%
[libx264 @ 0x3b96120] i16 v,h,dc,p: 28% 31% 20% 21%
[libx264 @ 0x3b96120] i8 v,h,dc,ddl,ddr,vr,hd,vl,hu: 10% 14% 43%  6%  5%  5%  7%  5%  6%
[libx264 @ 0x3b96120] i4 v,h,dc,ddl,ddr,vr,hd,vl,hu: 17% 23% 16%  8%  7%  7%  9%  6%  7%
[libx264 @ 0x3b96120] i8c dc,h,v,p: 68% 15% 13%  3%
[libx264 @ 0x3b96120] Weighted P-Frames: Y:0.5% UV:0.0%
[libx264 @ 0x3b96120] ref P L0: 52.1% 27.3% 15.9%  4.7%  0.0%
[libx264 @ 0x3b96120] ref B L0: 85.4% 11.9%  2.7%
[libx264 @ 0x3b96120] ref B L1: 93.8%  6.2%
[libx264 @ 0x3b96120] kb/s:14158.82
